<svg aria-hidden="true" style="position: absolute; width: 0; height: 0; overflow: hidden;" version="1.1" xmlns="http://www.w3.org/2000/svg" xmlns:xlink="http://www.w3.org/1999/xlink">
<defs>
<symbol id="icon-profile-male" viewBox="0 0 18 16">
<title>profile-male</title>
<path d="M0.25 15.992c0.134 0.033 0.271-0.044 0.306-0.177 0.515-1.921 2.608-2.42 3.859-2.717 0.314-0.075 0.561-0.133 0.722-0.203 1.425-0.619 1.889-1.614 2.029-2.34 0.017-0.088-0.014-0.178-0.082-0.236-0.742-0.64-1.368-1.602-1.763-2.708-0.011-0.032-0.029-0.061-0.051-0.085-0.522-0.568-0.822-1.168-0.822-1.647 0-0.279 0.106-0.467 0.343-0.609 0.072-0.043 0.118-0.12 0.122-0.204 0.111-2.547 1.925-4.552 4.15-4.565 0.002 0 0.051 0.003 0.053 0.003 2.236 0.031 4.038 2.079 4.103 4.662 0.002 0.072 0.034 0.138 0.089 0.184 0.156 0.133 0.229 0.301 0.229 0.529 0 0.401-0.213 0.893-0.601 1.386-0.018 0.024-0.033 0.051-0.042 0.079-0.4 1.268-1.118 2.388-1.969 3.072-0.072 0.058-0.106 0.151-0.089 0.242 0.139 0.726 0.604 1.72 2.029 2.339 0.168 0.073 0.43 0.13 0.761 0.201 1.239 0.268 3.311 0.717 3.819 2.616 0.030 0.111 0.131 0.185 0.241 0.185 0.021 0 0.043-0.003 0.065-0.008 0.134-0.036 0.212-0.173 0.177-0.306-0.587-2.194-2.936-2.702-4.197-2.975-0.293-0.063-0.545-0.118-0.668-0.172-0.93-0.404-1.503-1.020-1.706-1.832 0.864-0.742 1.586-1.886 1.999-3.168 0.438-0.57 0.679-1.157 0.679-1.659 0-0.335-0.108-0.614-0.322-0.832-0.119-2.802-2.119-5.008-4.6-5.044l-0.075-0.001c-2.437 0.013-4.444 2.162-4.62 4.915-0.313 0.23-0.472 0.553-0.472 0.962 0 0.591 0.334 1.299 0.92 1.948 0.404 1.111 1.032 2.088 1.778 2.771-0.202 0.816-0.775 1.434-1.707 1.838-0.12 0.053-0.361 0.11-0.638 0.176-1.271 0.302-3.635 0.864-4.226 3.074-0.035 0.133 0.043 0.27 0.177 0.306z"></path>
</symbol>
<symbol id="icon-key" viewBox="0 0 16 16">
<title>key</title>
<path d="M7.341 7.349c0.059 0 0.117-0.021 0.165-0.062l5.658-4.961-0.33-0.376-5.659 4.96c-0.104 0.091-0.114 0.249-0.023 0.353 0.050 0.056 0.119 0.085 0.188 0.085zM5.094 16c3.071 0 4.906-2.415 4.906-4.75 0-0.673-0.161-1.415-0.399-1.896l2.261-1.13c0.085-0.043 0.138-0.129 0.138-0.223v-2h1.5c0.005 0 0.051-0.003 0.056-0.003 0.333-0.022 0.432-0.128 0.444-0.497v-2h1.5c0.065 0 0.109 0.007 0.139 0.011 0.060 0.010 0.174 0.027 0.271-0.061 0.101-0.090 0.097-0.204 0.092-0.304-0.001-0.036-0.003-0.083-0.003-0.146v-2.265c0-0.405-0.329-0.735-0.735-0.735h-1.938c-0.177 0-0.349 0.065-0.485 0.182l-6.593 5.78c-0.324-0.065-0.815-0.149-1.157-0.149-2.808 0-5.093 2.285-5.093 5.093s2.285 5.094 5.094 5.094zM5.094 6.313c0.25 0 0.679 0.060 1.177 0.164 0.077 0.017 0.157-0.005 0.216-0.056l6.686-5.861c0.043-0.038 0.099-0.059 0.155-0.059h1.938c0.13 0 0.235 0.105 0.235 0.234v2.265h-1.75c-0.138 0-0.25 0.112-0.25 0.25v2.25h-1.75c-0.138 0-0.25 0.112-0.25 0.25v2.095l-2.362 1.181c-0.066 0.033-0.114 0.093-0.131 0.164s-0.003 0.146 0.040 0.206c0.22 0.303 0.453 1.057 0.453 1.854 0 2.089-1.648 4.25-4.406 4.25-2.533 0-4.594-2.061-4.594-4.594s2.061-4.593 4.594-4.593zM4.25 13.5c0.965 0 1.75-0.785 1.75-1.75s-0.785-1.75-1.75-1.75-1.75 0.785-1.75 1.75 0.785 1.75 1.75 1.75zM4.25 10.5c0.689 0 1.25 0.561 1.25 1.25s-0.561 1.25-1.25 1.25-1.25-0.561-1.25-1.25 0.561-1.25 1.25-1.25z"></path>
</symbol>
<symbol id="icon-locked" viewBox="0 0 16 16">
<title>locked</title>
<path d="M2 15.5v-8h1.5v-2.5c0-2.209 1.79-4 4-4h0.5c2.209 0 4 1.791 4 4v2.5h1.5v8h-11.5zM7.372 11.393l-0.372 2.607h1.5l-0.373-2.607c0.364-0.149 0.623-0.506 0.623-0.925 0-0.552-0.448-1-1-1s-1 0.448-1 1c0 0.418 0.258 0.776 0.622 0.925zM10.5 5.25c0-1.519-1.232-2.75-2.75-2.75s-2.75 1.231-2.75 2.75v2.25h5.5v-2.25z"></path>
</symbol>
<symbol id="icon-user2" viewBox="0 0 16 16">
<title>user2</title>
<path d="M0 16v-1.5c0-2.242 2.825-3.090 6.55-3.431-0.818-0.507-1.46-1.932-1.795-3.070-0.002 0-0.003 0.001-0.005 0.001-0.034 0-0.75-0.896-0.75-2 0-0.969-0.069-1.777 0.503-1.96-0-0.013-0.003-0.027-0.003-0.040 0-1.228 0.636-2.305 1.593-2.929 0.247-0.618 1.002-1.071 1.907-1.071s1.659 0.453 1.906 1.071c0.958 0.625 1.594 1.701 1.594 2.929 0 0.013-0.003 0.027-0.004 0.040 0.572 0.183 0.504 0.991 0.504 1.96 0 1.104-0.794 2-0.75 2-0.002 0-0.004-0.001-0.005-0.001-0.335 1.137-0.976 2.563-1.794 3.070 3.725 0.341 6.55 1.158 6.55 3.431v1.5h-16z"></path>
</symbol>
</defs>
</svg>
