<!-- Generated by IcoMoon.io -->
<svg version="1.1" xmlns="http://www.w3.org/2000/svg" width="16" height="16" viewBox="0 0 16 16">
<title>key</title>
<path d="M7.341 7.349c0.059 0 0.117-0.021 0.165-0.062l5.658-4.961-0.33-0.376-5.659 4.96c-0.104 0.091-0.114 0.249-0.023 0.353 0.050 0.056 0.119 0.085 0.188 0.085zM5.094 16c3.071 0 4.906-2.415 4.906-4.75 0-0.673-0.161-1.415-0.399-1.896l2.261-1.13c0.085-0.043 0.138-0.129 0.138-0.223v-2h1.5c0.005 0 0.051-0.003 0.056-0.003 0.333-0.022 0.432-0.128 0.444-0.497v-2h1.5c0.065 0 0.109 0.007 0.139 0.011 0.060 0.010 0.174 0.027 0.271-0.061 0.101-0.090 0.097-0.204 0.092-0.304-0.001-0.036-0.003-0.083-0.003-0.146v-2.265c0-0.405-0.329-0.735-0.735-0.735h-1.938c-0.177 0-0.349 0.065-0.485 0.182l-6.593 5.78c-0.324-0.065-0.815-0.149-1.157-0.149-2.808 0-5.093 2.285-5.093 5.093s2.285 5.094 5.094 5.094zM5.094 6.313c0.25 0 0.679 0.060 1.177 0.164 0.077 0.017 0.157-0.005 0.216-0.056l6.686-5.861c0.043-0.038 0.099-0.059 0.155-0.059h1.938c0.13 0 0.235 0.105 0.235 0.234v2.265h-1.75c-0.138 0-0.25 0.112-0.25 0.25v2.25h-1.75c-0.138 0-0.25 0.112-0.25 0.25v2.095l-2.362 1.181c-0.066 0.033-0.114 0.093-0.131 0.164s-0.003 0.146 0.040 0.206c0.22 0.303 0.453 1.057 0.453 1.854 0 2.089-1.648 4.25-4.406 4.25-2.533 0-4.594-2.061-4.594-4.594s2.061-4.593 4.594-4.593zM4.25 13.5c0.965 0 1.75-0.785 1.75-1.75s-0.785-1.75-1.75-1.75-1.75 0.785-1.75 1.75 0.785 1.75 1.75 1.75zM4.25 10.5c0.689 0 1.25 0.561 1.25 1.25s-0.561 1.25-1.25 1.25-1.25-0.561-1.25-1.25 0.561-1.25 1.25-1.25z"></path>
</svg>
