<!-- Generated by IcoMoon.io -->
<svg version="1.1" xmlns="http://www.w3.org/2000/svg" width="16" height="16" viewBox="0 0 16 16">
<title>user2</title>
<path d="M0 16v-1.5c0-2.242 2.825-3.090 6.55-3.431-0.818-0.507-1.46-1.932-1.795-3.070-0.002 0-0.003 0.001-0.005 0.001-0.034 0-0.75-0.896-0.75-2 0-0.969-0.069-1.777 0.503-1.96-0-0.013-0.003-0.027-0.003-0.040 0-1.228 0.636-2.305 1.593-2.929 0.247-0.618 1.002-1.071 1.907-1.071s1.659 0.453 1.906 1.071c0.958 0.625 1.594 1.701 1.594 2.929 0 0.013-0.003 0.027-0.004 0.040 0.572 0.183 0.504 0.991 0.504 1.96 0 1.104-0.794 2-0.75 2-0.002 0-0.004-0.001-0.005-0.001-0.335 1.137-0.976 2.563-1.794 3.070 3.725 0.341 6.55 1.158 6.55 3.431v1.5h-16z"></path>
</svg>
